<svg id="Capa_1" data-name="Capa 1" xmlns="http://www.w3.org/2000/svg" width="400" height="400" viewBox="0 0 400 400">
  <title>varices-icono1</title>
  <g>
    <path d="M180.8,111.6c-34,9.8-53.3,20.2-81.3,44.8-19,19.5-10.9,36.2-2,48.6a60.76,60.76,0,0,0,6.2,7.7l22.6,59.2-12.1,71.4a20.8,20.8,0,1,0,41,7l12.9-76.1c-.5,0-1,.1-1.5.1a18.07,18.07,0,0,1-5.1-.8,16.7,16.7,0,0,1-10.8-20.9l5.8-18.1-14-36.7c9.8-6.8,20.7-12.5,31.3-17.6L185.3,144a16.63,16.63,0,0,1,15.8-11.6,18.07,18.07,0,0,1,5.1.8,16.43,16.43,0,0,1,9.7,8.2,16.93,16.93,0,0,1,1.1,12.7l-2.4,7.6c11.2-7.5,18.3-20,14.2-30.8C223.6,117.2,205.5,104.7,180.8,111.6Z" fill="#fff"/>
    <path d="M205.2,136.3a13.28,13.28,0,0,0-16.7,8.6L153.9,253.5a13.28,13.28,0,0,0,8.6,16.7,13.86,13.86,0,0,0,4,.6,13.35,13.35,0,0,0,12.7-9.3L213.8,153A13.24,13.24,0,0,0,205.2,136.3Z" fill="#fff"/>
    <circle cx="275.41" cy="143.39" r="37.4" fill="#fff"/>
    <path d="M263.9,41.1c1.6-1.5.1-5.1-1.6-3.6a25.68,25.68,0,0,0-7.8,16.1c-.7,7.2,4.6,11.8,5.2,18.6.4,4.5-1.7,9.5-4.2,12.6-1.5,1.8.7,4.7,2.2,2.9a24.19,24.19,0,0,0,4.5-19.6c-1.3-7.2-6.5-10.6-3.7-18.8A21.36,21.36,0,0,1,263.9,41.1Z" fill="#fff"/>
    <path d="M282,41.1c1.6-1.5.1-5.1-1.6-3.6a25.68,25.68,0,0,0-7.8,16.1c-.7,7.2,4.6,11.8,5.2,18.6.4,4.5-1.7,9.5-4.2,12.6-1.5,1.8.7,4.7,2.2,2.9a24.19,24.19,0,0,0,4.5-19.6c-1.3-7.2-6.5-10.6-3.7-18.8A23.92,23.92,0,0,1,282,41.1Z" fill="#fff"/>
    <path d="M300.2,41.1c1.6-1.5.1-5.1-1.6-3.6a25.68,25.68,0,0,0-7.8,16.1c-.7,7.2,4.6,11.8,5.2,18.6.4,4.5-1.7,9.5-4.2,12.6-1.5,1.8.7,4.7,2.2,2.9a24.19,24.19,0,0,0,4.5-19.6c-1.3-7.2-6.5-10.6-3.7-18.8A23.92,23.92,0,0,1,300.2,41.1Z" fill="#fff"/>
  </g>
</svg>
