<svg id="Capa_1" data-name="Capa 1" xmlns="http://www.w3.org/2000/svg" width="400" height="400" viewBox="0 0 400 400">
  <title>varices-icono2</title>
  <g>
    <polygon points="297.6 246.7 297.4 248 296.5 252.9 286 253.9 285.3 253.9 285.2 254.7 285 258.9 275.8 260.3 285.6 259.9 286 259.9 286.1 259.4 286.8 255.6 297.9 255.8 298.9 255.8 299.2 254.6 300.5 250.2 304.1 250.2 303.8 245.9 299 246.6 297.6 246.7" fill="#fff"/>
    <polygon points="301.7 274.7 300.8 276 297.9 280.5 285.4 275.7 284.9 275.6 284.6 275.8 280.4 278.9 270.8 273.6 280.1 279.9 280.4 280.1 280.7 280 285.1 277.3 297.9 283.5 298.9 284 299.6 283 302.5 279.3 309 284.1 311.4 280.6 303.1 275.6 301.7 274.7" fill="#fff"/>
    <polygon points="242.7 298.3 242.5 298.4 242.4 298.7 242.4 305.6 233.9 310.3 233.3 310.7 233.2 311.5 233 316.1 228.1 317.3 229.4 321.3 235.2 319.1 236.5 318.6 236.4 317.5 236.1 312.2 243.6 306.8 244 306.5 244 306.1 243.2 298.8 248.2 295.6 242.7 298.3" fill="#fff"/>
    <polygon points="292.2 293.1 290.9 294.5 287.2 298.7 279.7 290.3 279.1 289.6 278.5 290.3 274.9 295.4 269 288.4 274.5 296.4 274.9 296.9 275.3 296.4 279.1 292 286.1 301.6 287 302.8 288.2 301.7 291.9 298.3 296.2 304.5 299.6 301.9 293.5 294.7 292.2 293.1" fill="#fff"/>
    <path d="M272.8,309.4l-1.3-.2-4.4-.5-.8-9.3v-.6l-.5-.1-5.3-1.6-1.7-6.9.9,7.4v.2l.2.1,4.8,2.1-.3,10v1.1l1.2.3,3.8,1c-.1,1.3-.1,2.5-.1,3.7l4,1.5c0-2.3-.1-4.5-.3-6.7Z" fill="#fff"/>
    <polygon points="229.1 294.3 230.3 290.4 238 290.4 238.5 290.3 238.7 290 241.8 284.1 245.9 285.2 241.8 283.4 241.6 283.3 241.4 283.5 237.7 288.7 229.3 287.6 228.5 287.6 228 288.6 226.7 291.5 222.5 289.6 221.1 293.6 226.9 295.3 228.6 295.8 229.1 294.3" fill="#fff"/>
    <path d="M222.3,222a12.69,12.69,0,0,1,3.2-4.7l.9-3.4.6-.8c7.3-9.8,24.1-12.6,34.9-9.9a74.52,74.52,0,0,1,2.7-20.9C274.5,147.7,323,72.4,323,72.4H237.6s-16.3,58.5-19.6,65.9-37,64.9-41.5,72.1c-2.7,4.3-11.2,15.4-17.6,23.6-13.9,17.9-28.8,51.8-34.3,53.7-5,1.7-17.3,7.9-21.1,13.3-3.6,5.2-9,7.4-9.6,7.8-14.8-2.5-18.8,4.2-16.1,12.4,4.7,15.9,38.7.5,38.7.5,25,10.5,40.2-4.7,52.4-23.7,8.8-13.7,32-23.2,44.1-20.9C197.3,235.9,217.9,231.2,222.3,222Z" fill="#fff"/>
    <path d="M262.2,208.9c-7-2.7-24.2-1.8-30.9,7.4l-1.2,4.5c-1.6.3-2.3,2.1-3,3.6-5.5,11.4-22,11.6-10.8,46.2a49.75,49.75,0,0,0,2.7,7.1c7.3,0,19.8-2.3,27-3.8C275.4,267.8,264.2,229.9,262.2,208.9Z" fill="#fff"/>
  </g>
</svg>
